<svg id="Layer_1" data-name="Layer 1" xmlns="http://www.w3.org/2000/svg" viewBox="0 0 173 173"><defs><style>.cls-1{fill:#ffce06;}.cls-2{fill:#fff;}</style></defs><title>teacherslearningcode-circlehash</title><circle class="cls-1" cx="86.5" cy="86.5" r="86.5"/><path class="cls-2" d="M700.25,314.52L684.7,299l15.54-15.53L715.78,299ZM729.58,299l16.47-16.46c1.9-1.91,1.27-4.37-.64-6.28s-4.36-2.54-6.27-.63l-16.46,16.46-15.53-15.53,16.45-16.46c1.91-1.91,1.28-4.37-.63-6.27s-4.36-2.56-6.27-.63l-16.46,16.47-16.1-16.11c-1.91-1.91-4.72-1.63-6.63.27s-2.2,4.72-.28,6.63l16.1,16.11L677.8,292.06,661.69,276c-1.91-1.91-4.72-1.63-6.63.28a4.55,4.55,0,0,0-.27,6.62L670.88,299l-16.09,16.1c-1.91,1.89-1.63,4.72.27,6.63a4.57,4.57,0,0,0,6.63.27l16.11-16.11,15.53,15.53-16.09,16.1a4.9,4.9,0,0,0,6.91,6.9l16.1-16.09,16.46,16.46c1.91,1.91,4.36,1.26,6.27-.64s2.54-4.35.63-6.27L707.16,321.4l15.53-15.53,16.46,16.47c1.9,1.91,4.36,1.25,6.27-.63s2.54-4.36.64-6.27Z" transform="translate(-613.85 -212.47)"/></svg>