<?xml version="1.0" encoding="utf-8"?>
<!-- Generator: Adobe Illustrator 19.2.1, SVG Export Plug-In . SVG Version: 6.00 Build 0)  -->
<svg version="1.1"
	 id="Layer_1" xmlns:cc="http://creativecommons.org/ns#" xmlns:dc="http://purl.org/dc/elements/1.1/" xmlns:rdf="http://www.w3.org/1999/02/22-rdf-syntax-ns#"
	 xmlns="http://www.w3.org/2000/svg" xmlns:xlink="http://www.w3.org/1999/xlink" x="0px" y="0px" viewBox="0 0 216 38.6"
	 style="enable-background:new 0 0 216 38.6;" xml:space="preserve">
<style type="text/css">
	.st0{fill:#FFFFFF;}
</style>
<path class="st0" d="M89,26c2.2,0,3.4-1.9,3.4-4.1c0-2.3-1.2-4.2-3.4-4.2c-2.3,0-3.4,1.9-3.4,4.2C85.6,24.1,86.9,26,89,26 M89,29.8
	c-5.2,0-8.9-3.1-8.9-8c0-4.8,3.8-8,8.9-8c5,0,8.9,3.2,8.9,8C97.9,26.7,94.2,29.8,89,29.8z"/>
<path class="st0" d="M152.7,21.9c0-2-1.2-3.9-3.2-3.9c-1.8,0-3.2,1.5-3.2,3.9c0,2.3,1.2,3.9,3.2,3.9
	C151.3,25.8,152.7,24.2,152.7,21.9 M141,29.5V8h5.3v7.4h0.1c0.4-0.2,2.1-1.5,4.6-1.5c4.1,0,7.2,3.3,7.2,7.7c0,5.5-3.4,8.2-7.2,8.2
	c-2.9,0-4.4-1.3-4.7-1.7h-0.1l-0.1,1.4C146.1,29.5,141,29.5,141,29.5z"/>
<path class="st0" d="M115.2,6.5c-1.6,0-3,1.3-3,3c0,1.6,1.3,3,3,3c1.6,0,3-1.3,3-3C118.2,7.9,116.8,6.5,115.2,6.5 M112.5,14.3h5.3
	v15.3h-5.3V14.3z"/>
<path class="st0" d="M180.9,29.5h5.2v-7.9c0-1.8,1.2-3.1,2.8-3.1c1.8,0,2.8,1.2,2.8,3.1v7.9h5.2v-9.2c0-3.5-2.2-6.4-6.3-6.4
	c-2.7,0-4.1,1.5-4.8,2.1h-0.1l-0.1-1.7h-4.7L180.9,29.5"/>
<polyline class="st0" points="200,29.5 205.3,29.5 205.3,22.5 205.4,22.5 210.1,29.5 216,29.5 210.3,21.4 215.8,14.3 210,14.3 
	205.4,20.6 205.3,20.6 205.3,8 200,8 200,29.5 "/>
<path class="st0" d="M78.8,14.5c-0.4-0.1-1.9-0.6-3.8-0.6c-4.8,0-8.4,3-8.4,8c0,4.5,3.2,8,8.2,8c2.1,0,3.7-0.6,4-0.7l-0.3-4.5
	c-0.4,0.2-1.5,0.8-2.7,0.8c-2.1,0-3.7-1.5-3.7-3.7c0-2.2,1.7-3.7,3.8-3.7c1.2,0,2.2,0.5,2.6,0.7L78.8,14.5"/>
<path class="st0" d="M125.9,21.7c0,2.5,1.4,4.1,3.2,4.1c1.7,0,3.3-1.5,3.3-3.9c0-2.4-1.4-4-3.3-4C127.2,18,125.9,19.7,125.9,21.7
	 M137.6,14.3v15.3h-5.2l-0.1-1.5h-0.1c-0.6,0.5-1.8,1.9-5.1,1.9c-3.7,0-6.9-3.2-6.9-8c0-4.4,2.9-8,7.3-8c3,0,4.2,1.3,4.7,1.7h0.1
	l0.1-1.4L137.6,14.3L137.6,14.3z"/>
<path class="st0" d="M165.7,21.7c0,2.5,1.4,4.1,3.2,4.1c1.7,0,3.3-1.5,3.3-3.9c0-2.4-1.4-4-3.3-4C167,18,165.7,19.7,165.7,21.7
	 M177.4,14.3v15.3h-5.2l-0.1-1.5h-0.1c-0.6,0.5-1.8,1.9-5.1,1.9c-3.7,0-6.9-3.2-6.9-8c0-4.4,2.9-8,7.3-8c3,0,4.2,1.3,4.7,1.7h0.1
	l0.1-1.4C172.2,14.3,177.4,14.3,177.4,14.3z"/>
<path class="st0" d="M49.6,29c1.5,0.4,3.7,0.9,6.1,0.9c4.5,0,9.1-1.6,9.1-6.6c0-6.8-9.4-5.9-9.4-8.6c0-1.4,1.4-1.7,2.9-1.7
	c2,0,4.5,0.9,5,1.2l0.4-4.7c-1.4-0.5-3.5-0.7-5.4-0.7c-4.5,0-8.9,1.7-8.9,6.2c0,6.7,9.4,5.3,9.4,8.8c0,1.4-1.3,1.9-3.1,1.9
	c-2.4,0-4.6-1.2-5.6-1.6L49.6,29"/>
<path class="st0" d="M110,25.4c-0.3,0.1-1,0.3-1.5,0.3c-1.1,0-2.3-0.5-2.3-2.4v-5.2h3.3v-3.8h-3.3V9.3h-5.3v4.9h-2.3v3.8h2.3v6
	c0,3.3,1.5,5.7,5.5,5.7c1.1,0,2.2-0.2,2.9-0.3L110,25.4"/>
<path class="st0" d="M30.8,19.3C31,25.9,25,30.9,20,30.9H7.7L0,38.6h19.9c6.4,0,12.4-5.7,12.4-12.5c0-2-0.2-4.6-1.5-6.6L30.8,19.3
	 M28.7,24.2c0.8-1.4,1.1-2.9,1.2-4.3h-5.6c0,1.4-0.2,2.8-0.7,4.3H28.7z M23.3,25c-0.6,1.6-2.1,3.7-3.6,4.9c2.8,0,6.1-1.2,8.4-4.9
	H23.3z M22.6,24.2c0.5-1.4,0.7-2.9,0.9-4.3h-8.4c0.1,1.5,0.4,3,0.9,4.3H22.6z M14.9,24.2c-0.5-1.5-0.8-3-0.8-4.3H8.6
	c0.1,1.5,0.5,3,1.2,4.3H14.9L14.9,24.2z M19.3,29c1.1-1,2.3-2.6,3-4h-6C16.9,26.4,18.2,28,19.3,29z M10.3,25
	c2.5,3.6,5.7,4.9,8.6,4.9c-1.5-1.1-3.1-3.2-3.6-4.9H10.3L10.3,25z M23.6,14.6c0.5,1.3,0.7,2.8,0.7,4.3H30c-0.1-1.5-0.5-3-1.2-4.3
	C28.7,14.6,23.6,14.6,23.6,14.6z M28.1,13.6c-2.4-3.5-5.6-4.8-8.5-4.8c1.5,1.1,3,3.2,3.6,4.8C23.3,13.6,28.1,13.6,28.1,13.6z
	 M15.9,14.6c-0.5,1.3-0.7,2.8-0.9,4.3h8.4c-0.1-1.5-0.4-3-0.9-4.3C22.6,14.6,15.9,14.6,15.9,14.6z M9.8,14.6
	c-0.7,1.3-1.1,2.8-1.2,4.3h5.6c0-1.5,0.3-3,0.8-4.3C15,14.6,9.8,14.6,9.8,14.6z M19.3,9.7c-1.1,1-2.4,2.5-3,3.9h6
	C21.6,12.2,20.4,10.7,19.3,9.7z M15.3,13.6c0.5-1.6,2.1-3.7,3.6-4.8c-2.9,0-6.1,1.4-8.6,4.8C10.3,13.6,15.3,13.6,15.3,13.6z
	 M7.7,19.2c-1.2-2-1.5-4.6-1.5-6.6C6.2,5.8,12.3,0,18.7,0h19.9l-7.7,7.8H18.5C13.6,7.8,7.6,12.8,7.7,19.2z"/>
</svg>
