<!-- Generator: Adobe Illustrator 12.0.0, SVG Export Plug-In . SVG Version: 6.00 Build 51448)  -->
<svg xmlns:rdf="http://www.w3.org/1999/02/22-rdf-syntax-ns#" xmlns="http://www.w3.org/2000/svg" xml:space="preserve" overflow="visible" height="38.56" viewBox="0 0 216 38.560001" width="216" version="1.1" enable-background="new 0 0 230 57" xmlns:cc="http://creativecommons.org/ns#" xmlns:dc="http://purl.org/dc/elements/1.1/"><metadata><rdf:RDF><cc:Work rdf:about=""><dc:format>image/svg+xml</dc:format><dc:type rdf:resource="http://purl.org/dc/dcmitype/StillImage"/><dc:title/></cc:Work></rdf:RDF></metadata><defs>
</defs>
<path d="m89.011,26.025c2.159,0,3.428-1.893,3.428-4.146,0-2.284-1.208-4.175-3.428-4.175-2.314,0-3.424,1.891-3.424,4.175,0,2.253,1.273,4.146,3.424,4.146m0,3.819c-5.169,0-8.871-3.105-8.871-7.965,0-4.8,3.835-7.995,8.871-7.995,5.037,0,8.874,3.175,8.874,7.995,0,4.86-3.733,7.965-8.874,7.965z" fill="#ed1b2e"/><path d="m152.66,21.883c0-2.04-1.163-3.854-3.191-3.854-1.784,0-3.222,1.525-3.222,3.854,0,2.26,1.177,3.868,3.222,3.868,1.844,0,3.191-1.533,3.191-3.868m-11.632,7.635v-21.527h5.301v7.377h0.06c0.373-0.234,2.087-1.466,4.608-1.466,4.128,0,7.162,3.319,7.162,7.709,0,5.486-3.364,8.248-7.195,8.248-2.897,0-4.369-1.349-4.731-1.739h-0.083l-0.077,1.398h-5.045z" fill="#ed1b2e"/><path d="m115.21,6.542c-1.637,0-2.982,1.346-2.982,2.981,0,1.638,1.346,2.983,2.982,2.983,1.638,0,2.982-1.345,2.982-2.983,0-1.635-1.344-2.981-2.982-2.981m-2.661,7.731h5.322v15.28h-5.322v-15.28z" fill="#ed1b2e"/><path d="m180.86,29.531h5.165v-7.886c0-1.849,1.226-3.113,2.791-3.113,1.79,0,2.806,1.164,2.806,3.113v7.886h5.167v-9.192c0-3.459-2.228-6.421-6.314-6.421-2.731,0-4.15,1.483-4.799,2.067h-0.109l-0.052-1.691h-4.654v15.237" fill="#ed1b2e"/><polyline points="206.26,39.313,211.56,39.313,211.56,32.244,211.61,32.244,216.32,39.313,222.21,39.313,216.53,31.221,222.06,24.065,216.18,24.065,211.61,30.359,211.56,30.359,211.56,17.789,206.26,17.789,206.26,39.313" fill="#ed1b2e" transform="translate(-6.21,-9.78)"/><path d="m78.788,14.498c-0.399-0.11-1.856-0.611-3.789-0.611-4.785,0-8.371,2.995-8.371,7.981,0,4.533,3.221,7.979,8.157,7.979,2.102,0,3.65-0.561,4.003-0.665l-0.259-4.452c-0.41,0.186-1.468,0.79-2.689,0.79-2.143,0-3.708-1.517-3.708-3.652,0-2.241,1.675-3.686,3.77-3.686,1.181,0,2.234,0.549,2.628,0.744l0.258-4.428" fill="#ed1b2e"/><path d="m125.87,21.743c0,2.524,1.41,4.102,3.234,4.102,1.653,0,3.264-1.548,3.264-3.895,0-2.365-1.428-3.984-3.264-3.984-1.899,0.001-3.234,1.696-3.234,3.777m11.734-7.479v15.266h-5.157l-0.077-1.539h-0.112c-0.572,0.516-1.763,1.876-5.09,1.876-3.688,0-6.919-3.206-6.919-7.984,0-4.432,2.865-7.973,7.26-7.973,2.989,0,4.21,1.317,4.667,1.735h0.138l0.052-1.381h5.238z" fill="#ed1b2e"/><path d="m165.69,21.734c0,2.525,1.409,4.104,3.234,4.104,1.652,0,3.264-1.549,3.264-3.896,0-2.365-1.429-3.983-3.264-3.983-1.901,0-3.234,1.695-3.234,3.775m11.735-7.477v15.267h-5.159l-0.077-1.541h-0.11c-0.572,0.516-1.765,1.879-5.09,1.879-3.689,0-6.92-3.208-6.92-7.985,0-4.435,2.865-7.975,7.26-7.975,2.99,0,4.209,1.318,4.668,1.736h0.137l0.052-1.381h5.239z" fill="#ed1b2e"/><path d="m49.583,28.965c1.484,0.449,3.741,0.861,6.134,0.861,4.532,0,9.053-1.605,9.053-6.58,0-6.83-9.415-5.884-9.415-8.606,0-1.392,1.447-1.693,2.865-1.693,1.968,0,4.458,0.945,5.011,1.169l0.427-4.704c-1.374-0.467-3.458-0.734-5.418-0.734-4.475,0-8.888,1.749-8.888,6.18,0,6.709,9.389,5.311,9.389,8.83,0,1.355-1.35,1.869-3.076,1.869-2.37,0-4.599-1.186-5.563-1.614l-0.519,5.022" fill="#ed1b2e"/><path d="m109.97,25.369c-0.262,0.072-0.978,0.256-1.47,0.256-1.076,0-2.252-0.504-2.252-2.368v-5.161h3.337v-3.837h-3.337v-4.917h-5.312v4.917h-2.322v3.837h2.322v6.038c0,3.322,1.542,5.702,5.471,5.702,1.141,0,2.188-0.152,2.907-0.289l0.656-4.178" fill="#ed1b2e"/><path d="m30.838,19.295c0.134,6.593-5.825,11.571-10.805,11.571h-12.31l-7.723,7.694h19.899c6.353,0,12.447-5.715,12.447-12.538,0-2.004-0.242-4.614-1.507-6.593v-0.134m-2.113,4.857c0.768-1.372,1.145-2.88,1.238-4.347h-5.585c0,1.36-0.227,2.84-0.738,4.347h5.085zm-5.449,0.862c-0.634,1.613-2.14,3.711-3.605,4.856,2.837,0,6.08-1.238,8.45-4.856h-4.845zm-0.634-0.862c0.499-1.372,0.727-2.88,0.862-4.347h-8.45c0.135,1.467,0.363,2.975,0.861,4.347h6.727zm-7.694,0c-0.497-1.507-0.767-2.986-0.767-4.347h-5.583c0.134,1.467,0.498,2.975,1.236,4.347h5.115zm4.345,4.844c1.103-0.997,2.341-2.61,2.973-3.982h-5.974c0.634,1.372,1.871,2.985,3.001,3.982zm-8.961-3.982c2.475,3.618,5.717,4.856,8.598,4.856-1.509-1.146-3.108-3.243-3.621-4.856h-4.976zm13.309-10.429c0.511,1.332,0.738,2.839,0.738,4.345h5.585c-0.093-1.506-0.471-3.013-1.238-4.345h-5.085zm4.481-1.01c-2.37-3.471-5.612-4.843-8.45-4.843,1.465,1.104,2.971,3.203,3.605,4.843h4.845zm-12.206,1.01c-0.498,1.332-0.726,2.839-0.861,4.345h8.45c-0.135-1.506-0.364-3.013-0.862-4.345h-6.727zm-6.081,0c-0.738,1.332-1.103,2.839-1.236,4.345h5.583c0-1.506,0.27-3.013,0.768-4.345h-5.115zm9.459-4.885c-1.13,0.997-2.367,2.503-3,3.875h5.974c-0.633-1.372-1.871-2.878-2.974-3.875zm-3.983,3.875c0.513-1.641,2.112-3.74,3.621-4.843-2.881,0-6.124,1.372-8.598,4.843h4.977zm-7.588,5.584c-1.237-1.964-1.508-4.574-1.508-6.579,0-6.823,6.096-12.58,12.445-12.58h19.902l-7.724,7.789h-12.311c-4.95,0-10.94,5.02-10.804,11.37z" fill="#ed1b2e"/>
</svg>
