<svg id="Layer_1" data-name="Layer 1" xmlns="http://www.w3.org/2000/svg" viewBox="0 0 315.55 24.83"><defs><style>.cls-1{fill:#231f20;}.cls-2{fill:#ffce06;}</style></defs><title>tlc-oneline</title><path class="cls-1" d="M178.86,399.5v-1.82a1,1,0,0,1,1-1.17q1,0,1,1.31a8.49,8.49,0,0,1-.79,4.33,3.9,3.9,0,0,1-3.54,1.65,3.58,3.58,0,0,1-3.23-1.45,6.74,6.74,0,0,1-.71-3.59v-6.84a0.51,0.51,0,0,0-.55-0.6h-0.93a1.06,1.06,0,0,1-.77-0.3,1,1,0,0,1-.31-0.73,1,1,0,0,1,.3-0.71,0.91,0.91,0,0,1,.67-0.31h1.11a0.45,0.45,0,0,0,.48-0.54v-2.94a1,1,0,0,1,1.11-1.08,0.93,0.93,0,0,1,1,1.08v3a0.42,0.42,0,0,0,.51.43h3.11a0.92,0.92,0,0,1,1.08,1,1,1,0,0,1-1.17,1.05h-3.13q-0.4,0-.4.6v7q0,3,2,3T178.86,399.5Z" transform="translate(-149.14 -384.03)"/><path class="cls-1" d="M195.27,395.05a3.52,3.52,0,0,1-.14,1.33,1,1,0,0,1-.83.24h-9.06a0.79,0.79,0,0,0-.48.1,0.42,0.42,0,0,0-.11.33,5.13,5.13,0,0,0,1.28,3.56,4.25,4.25,0,0,0,5.49.74,3.13,3.13,0,0,0,1.35-1.74l0.26-.83a0.88,0.88,0,0,1,.94-0.68,1,1,0,0,1,1.05,1.08,4.12,4.12,0,0,1-1.88,3.29,6.86,6.86,0,0,1-4.28,1.44,6,6,0,0,1-4.76-2,7.88,7.88,0,0,1-1.77-5.4,8.3,8.3,0,0,1,1.88-5.64,6.18,6.18,0,0,1,4.9-2.17,5.88,5.88,0,0,1,4.42,1.79A6.29,6.29,0,0,1,195.27,395.05Zm-10.34-.74c0,0.27.21,0.4,0.63,0.4h6.81c0.4,0,.6-0.13.6-0.4a3.55,3.55,0,0,0-1.14-2.62,3.71,3.71,0,0,0-2.68-1.11,4.3,4.3,0,0,0-2.91,1.15A3.39,3.39,0,0,0,184.93,394.31Z" transform="translate(-149.14 -384.03)"/><path class="cls-1" d="M208.72,403.94a2.64,2.64,0,0,1-2.88-2,5.12,5.12,0,0,1-4.56,2.14,5.62,5.62,0,0,1-3.69-1.14,3.75,3.75,0,0,1-1.38-3,3.7,3.7,0,0,1,2-3.48,5.37,5.37,0,0,1,1.33-.56q0.56-.13,2.24-0.33a8.56,8.56,0,0,0,3.12-.71,1.83,1.83,0,0,0,.73-1.68,2.25,2.25,0,0,0-.81-1.84,3.46,3.46,0,0,0-2.27-.67,4.36,4.36,0,0,0-2.39.71,0.77,0.77,0,0,0-.43.6,0.47,0.47,0,0,0,.26.29,1.11,1.11,0,0,1,.4,1,1.21,1.21,0,0,1-.41.94,1.5,1.5,0,0,1-1,.37,1.66,1.66,0,0,1-1.24-.51,1.73,1.73,0,0,1-.5-1.25,3.32,3.32,0,0,1,1.58-2.74,6.38,6.38,0,0,1,3.83-1.14q5.19,0,5.19,5v5.75a11.89,11.89,0,0,0,.06,1.62,1,1,0,0,0,1,1q1,0,1-1.81V399a0.79,0.79,0,0,1,.87-0.91q0.93,0,.93,1.37v1.77Q211.57,403.94,208.72,403.94Zm-3.16-5.67v-2a3.65,3.65,0,0,1-1.32.8,13.2,13.2,0,0,1-2.48.4q-3.24.31-3.24,2.39a2.07,2.07,0,0,0,.78,1.71,3.3,3.3,0,0,0,2.12.63,4.19,4.19,0,0,0,3-1A3.85,3.85,0,0,0,205.56,398.27Z" transform="translate(-149.14 -384.03)"/><path class="cls-1" d="M220.83,394.17a1.32,1.32,0,0,1,1.42-1.31,2.22,2.22,0,0,0-1-1.57,3.57,3.57,0,0,0-2.1-.57,3.79,3.79,0,0,0-3.16,1.57,6.68,6.68,0,0,0-1.2,4.16,6.94,6.94,0,0,0,1.13,4.2,3.66,3.66,0,0,0,3.12,1.53,3.47,3.47,0,0,0,2.18-.71,3.58,3.58,0,0,0,1.27-2q0.28-1,.34-1.14a1,1,0,0,1,.91-0.57,1.07,1.07,0,0,1,1.11,1.11,4.27,4.27,0,0,1-.46,1.71,5.92,5.92,0,0,1-1.08,1.65,5.7,5.7,0,0,1-4.36,1.8,5.91,5.91,0,0,1-4.69-2.05,7.93,7.93,0,0,1-1.78-5.39,8.34,8.34,0,0,1,1.84-5.66,6.14,6.14,0,0,1,4.89-2.12,5.78,5.78,0,0,1,3.79,1.24,3.9,3.9,0,0,1,1.51,3.15A2.59,2.59,0,0,1,224,395a1.88,1.88,0,0,1-1.5.68,1.69,1.69,0,0,1-1.18-.43A1.37,1.37,0,0,1,220.83,394.17Z" transform="translate(-149.14 -384.03)"/><path class="cls-1" d="M230.24,385.2l-0.11,5.55a7.68,7.68,0,0,1,2.09-1.5,6.25,6.25,0,0,1,6.17,1,4.81,4.81,0,0,1,1.49,3.68v4.76q0,1.68,0,1.85,0.11,1.43.74,1.42a2.06,2.06,0,0,0,.66-0.16,2.09,2.09,0,0,1,.46,0,0.9,0.9,0,0,1,1.05,1q0,1-1.37,1a9.94,9.94,0,0,1-1.08-.08,17.19,17.19,0,0,0-1.94-.14,8.78,8.78,0,0,0-1.14.06q-1.2.17-1.48,0.17a1.26,1.26,0,0,1-.86-0.3,1,1,0,0,1-.34-0.75,0.79,0.79,0,0,1,.3-0.63,1,1,0,0,1,.7-0.26,2.41,2.41,0,0,1,.74.14,1.54,1.54,0,0,0,.48.08q0.85,0,.88-1.85,0-.34.06-1.34V396a8.88,8.88,0,0,0-.57-3.9,3.06,3.06,0,0,0-2.92-1.48,3.67,3.67,0,0,0-3.29,1.54,6.33,6.33,0,0,0-.74,3.39v2.05a2.41,2.41,0,0,1-.11.57v0.54q0,1.62,0,1.88,0.15,1.4.85,1.4a2.46,2.46,0,0,0,.66-0.13,2.47,2.47,0,0,1,.63-0.13,0.82,0.82,0,0,1,.94.91,1,1,0,0,1-1.26,1q-0.4,0-1.21-.08a18.3,18.3,0,0,0-1.87-.11q-0.49,0-1.35.09-1.15.11-1.46,0.11a1,1,0,0,1-1.18-1.06,0.89,0.89,0,0,1,1.1-.88,1.4,1.4,0,0,1,.55.08,3.42,3.42,0,0,0,.7.12q0.46,0,.62-0.87a26.14,26.14,0,0,0,.19-3.55v-5.1a49.39,49.39,0,0,0-.17-5.4q-0.17-1.12-.8-1.12a3.17,3.17,0,0,0-.6.08,3.16,3.16,0,0,1-.63.09,0.83,0.83,0,0,1-1-.91,0.86,0.86,0,0,1,.34-0.68,1.25,1.25,0,0,1,.83-0.28l1,0.08a11.14,11.14,0,0,0,1.17.06,5,5,0,0,0,.71-0.07,4.79,4.79,0,0,1,.66-0.07q0.65,0,.66.94v0.06Z" transform="translate(-149.14 -384.03)"/><path class="cls-1" d="M255.75,395.19a3.51,3.51,0,0,1-.14,1.33,1,1,0,0,1-.83.24h-9.06a0.8,0.8,0,0,0-.48.1,0.42,0.42,0,0,0-.11.33,5.13,5.13,0,0,0,1.28,3.56,4.25,4.25,0,0,0,5.49.74,3.13,3.13,0,0,0,1.35-1.74l0.26-.83a0.88,0.88,0,0,1,.94-0.68,1,1,0,0,1,1.05,1.08,4.12,4.12,0,0,1-1.88,3.29,6.85,6.85,0,0,1-4.27,1.44,6,6,0,0,1-4.76-2,7.88,7.88,0,0,1-1.77-5.4,8.29,8.29,0,0,1,1.88-5.64,6.18,6.18,0,0,1,4.9-2.17,5.88,5.88,0,0,1,4.42,1.79A6.29,6.29,0,0,1,255.75,395.19Zm-10.35-.74c0,0.27.21,0.4,0.63,0.4h6.81c0.4,0,.6-0.13.6-0.4a3.54,3.54,0,0,0-1.14-2.62,3.71,3.71,0,0,0-2.68-1.11,4.29,4.29,0,0,0-2.91,1.15A3.39,3.39,0,0,0,245.4,394.45Z" transform="translate(-149.14 -384.03)"/><path class="cls-1" d="M261.24,390.14v0.78a5,5,0,0,1,7.2-1,3.73,3.73,0,0,1,1.24,2.89,3.17,3.17,0,0,1-.63,2,2,2,0,0,1-1.65.78,1.62,1.62,0,0,1-1.11-.4,1.24,1.24,0,0,1-.46-1,1.15,1.15,0,0,1,.34-0.81,1.07,1.07,0,0,1,.8-0.36,1.77,1.77,0,0,1,.37.09,1.43,1.43,0,0,0,.17-0.63,1.72,1.72,0,0,0-.73-1.4,2.84,2.84,0,0,0-1.81-.57,2.88,2.88,0,0,0-3,2,11.3,11.3,0,0,0-.46,3.71v1.88q0,1.91,0,2.14,0.14,1.62.88,1.62a3.27,3.27,0,0,0,.77-0.1,2.38,2.38,0,0,1,.54-0.07,0.8,0.8,0,0,1,.91.9,1,1,0,0,1-1.16,1h-0.11a12.46,12.46,0,0,1-1.29-.1,12.44,12.44,0,0,0-1.29-.1q-1.14,0-1.79.06l-1.59.14a1,1,0,0,1-1.17-1,0.89,0.89,0,0,1,1.09-.88,2.34,2.34,0,0,1,.43,0l0.43,0.08a2.42,2.42,0,0,0,.4.06q0.72,0,.78-1.31v-1.45l-0.08-6.47q-0.08-1.68-.86-1.68a3.15,3.15,0,0,0-.63.09,3.2,3.2,0,0,1-.63.08,0.82,0.82,0,0,1-.94-0.91,1,1,0,0,1,1.23-1,7.51,7.51,0,0,1,.86.07,7.46,7.46,0,0,0,.85.07,6,6,0,0,0,.74-0.07,1.81,1.81,0,0,1,.54-0.07A0.69,0.69,0,0,1,261.24,390.14Z" transform="translate(-149.14 -384.03)"/><path class="cls-1" d="M276.34,388.84a5,5,0,0,1,3.18,1v-0.11a0.87,0.87,0,0,1,.91-1.05,0.82,0.82,0,0,1,.94.91q0,0.17,0,.86a7,7,0,0,0-.09,1.14,9.91,9.91,0,0,0,.07,1,9.92,9.92,0,0,1,.07,1,0.89,0.89,0,0,1-.93,1.08,0.83,0.83,0,0,1-.93-0.91V392.8a1.83,1.83,0,0,0-1-1.47,4.05,4.05,0,0,0-2.24-.61,3.53,3.53,0,0,0-2.19.67,2,2,0,0,0-.88,1.67q0,1.82,2.51,2.17l1.65,0.23q4.85,0.66,4.85,4a4.07,4.07,0,0,1-1.56,3.32,6.29,6.29,0,0,1-4.09,1.27,6.49,6.49,0,0,1-4.09-1.34v0.54a0.88,0.88,0,0,1-1,1,1,1,0,0,1-1.05-1.17,14.8,14.8,0,0,0,.17-1.48,5.61,5.61,0,0,0,.06-0.8,6.83,6.83,0,0,0-.11-1.28,5.33,5.33,0,0,1-.11-0.94,0.85,0.85,0,0,1,.91-1,0.8,0.8,0,0,1,.75.29,4.41,4.41,0,0,1,.19,1.51,2.35,2.35,0,0,0,1.28,2,6,6,0,0,0,3.19.77,3.63,3.63,0,0,0,2.31-.71,2.19,2.19,0,0,0,.91-1.79q0-1.94-3.08-2.25a12.31,12.31,0,0,1-4.47-1.15,3.07,3.07,0,0,1-1.54-2.95,4,4,0,0,1,1.5-3.24A6,6,0,0,1,276.34,388.84Z" transform="translate(-149.14 -384.03)"/><path class="cls-2" d="M157.55,398.41l-2.79-2.8,2.79-2.79,2.79,2.79Zm5.28-2.8,3-3a0.9,0.9,0,0,0-1.24-1.24l-3,3-2.79-2.8,3-3a0.9,0.9,0,0,0-1.24-1.24l-3,3-2.9-2.9a0.88,0.88,0,0,0-1.24,1.24l2.9,2.9-2.8,2.8-2.9-2.9a0.88,0.88,0,0,0-1.24,1.24l2.9,2.9-2.9,2.89a0.88,0.88,0,0,0,1.24,1.24l2.9-2.9,2.79,2.8-2.9,2.9a0.88,0.88,0,0,0,1.24,1.24l2.9-2.9,3,3a0.9,0.9,0,0,0,1.24-1.24l-3-3,2.8-2.8,3,3a0.9,0.9,0,0,0,1.24-1.24Z" transform="translate(-149.14 -384.03)"/><path class="cls-1" d="M292.19,388.36c0-2.27-.41-2.33-0.8-2.33s-0.89.17-1.52,0.17a0.89,0.89,0,0,1-.94-0.91,1.14,1.14,0,0,1,1.27-1c0.86,0,1.3.31,1.85,0.31,0.72,0,1-.31,1.5-0.31,0.69,0,.77.44,0.77,1.44v13.95c0,2,.33,2.33.8,2.33s0.88-.17,1.27-0.17a0.89,0.89,0,0,1,.94.91,1.11,1.11,0,0,1-1.19,1c-0.94,0-1.5-.3-2.85-0.3s-2,.3-2.93.3a1.12,1.12,0,0,1-1.19-1,0.89,0.89,0,0,1,.94-0.91c0.38,0,.8.17,1.27,0.17,0.66,0,.8-0.74.8-2.33V388.36h0Z" transform="translate(-149.14 -384.03)"/><path class="cls-1" d="M299.59,396.86c-0.11,2.82,1.41,5.39,4.45,5.39a3.69,3.69,0,0,0,3.82-2.74c0.17-.58.3-1.22,1-1.22a1,1,0,0,1,1.11,1.05,4.92,4.92,0,0,1-1.63,3.18,6.67,6.67,0,0,1-4.51,1.61c-4.35,0-6.59-3.24-6.59-7.33a8.9,8.9,0,0,1,1.63-5.4A6.41,6.41,0,0,1,304,389a6.07,6.07,0,0,1,6.28,6.39c0,1.38,0,1.5-1.33,1.5h-9.38Zm8.41-2c-0.14-2.27-1.44-4-3.9-4a4.17,4.17,0,0,0-4.26,4H308Z" transform="translate(-149.14 -384.03)"/><path class="cls-1" d="M322.93,399.29c0,0.86-.28,3,1,3s1-1.77,1-2.58-0.11-1.66.89-1.66a0.92,0.92,0,0,1,1,1.13c0,2.1,0,3-.58,3.82a2.86,2.86,0,0,1-2.44,1,2.6,2.6,0,0,1-2.82-2,5,5,0,0,1-4.48,2.11,6.2,6.2,0,0,1-3.29-.8,3.87,3.87,0,0,1-1.85-3.29,3.81,3.81,0,0,1,1.88-3.52,8.74,8.74,0,0,1,3.71-1c1.66-.17,3.85-0.14,3.85-2.19,0-1.85-1.49-2.48-3.13-2.48a4.42,4.42,0,0,0-2.13.6,1.18,1.18,0,0,0-.64.72,1.26,1.26,0,0,1,.66,1.14,1.37,1.37,0,0,1-1.49,1.3,1.72,1.72,0,0,1-1.71-1.77,3.62,3.62,0,0,1,1.71-2.85,6.71,6.71,0,0,1,3.65-1,6.32,6.32,0,0,1,3.79,1.11c1.36,1.05,1.55,2.54,1.52,4.2Zm-6.39,3a3.69,3.69,0,0,0,4.17-4.15c0-.58,0-1.19.06-1.77-1,1-2.54,1.05-3.87,1.19s-3.24.5-3.24,2.41C313.67,401.59,315.08,402.25,316.55,402.25Z" transform="translate(-149.14 -384.03)"/><path class="cls-1" d="M330.52,393.46c0-1.88-.22-2.33-0.83-2.33s-0.89.17-1.6,0.17a0.9,0.9,0,0,1-.94-0.92,1.13,1.13,0,0,1,1.25-1c0.52,0,.94.31,1.6,0.31s1-.31,1.58-0.31c0.72,0,.8.58,0.77,1.69h0.05a4.31,4.31,0,0,1,3.9-2.08c2.32,0,4.45,1.38,4.45,3.9,0,1.41-.64,2.85-2.33,2.85a1.43,1.43,0,0,1-1.49-1.33,1.19,1.19,0,0,1,1.14-1.19,1.59,1.59,0,0,1,.36.09,1.3,1.3,0,0,0,.17-0.64c0-1.25-1.36-1.94-2.46-1.94-2.1,0-3.48,1.22-3.48,5.22v3.71c0,2,.39,2.33.88,2.33s0.89-.17,1.28-0.17a0.89,0.89,0,0,1,.94.91,1.12,1.12,0,0,1-1.19,1c-0.94,0-1.72-.3-2.85-0.3s-1.8.3-2.93,0.3a1.13,1.13,0,0,1-1.24-1,0.89,0.89,0,0,1,.94-0.91c0.39,0,.8.17,1.27,0.17s0.77-.39.77-2.33v-6.2h0Z" transform="translate(-149.14 -384.03)"/><path class="cls-1" d="M344.31,393.48c0-1.91-.17-2.35-0.8-2.35-0.47,0-.89.17-1.27,0.17a0.89,0.89,0,0,1-.94-0.92,1.15,1.15,0,0,1,1-1c0.58,0,.77.31,1.49,0.31s1-.31,1.74-0.31,0.61,0.61.61,1.66h0.05a5.68,5.68,0,0,1,4.62-2,6,6,0,0,1,4,1.5c1.22,1.1,1.27,2.52,1.27,4v5.15c0,1.69.17,2.35,0.8,2.35,0.47,0,.88-0.17,1.27-0.17a0.89,0.89,0,0,1,.94.91,1,1,0,0,1-1.19,1c-0.91,0-1.57-.3-2.82-0.3s-2,.3-3,0.3a1,1,0,0,1-1.19-1,0.89,0.89,0,0,1,.94-0.91c0.39,0,.8.17,1.27,0.17,0.69,0,.8-0.61.8-2.35v-4.1c0-1.77,0-2.32-.44-3.18a3.3,3.3,0,0,0-3-1.52,4.07,4.07,0,0,0-3.38,1.6c-0.33.53-.72,1.14-0.72,3.9v3.26c0,1.69.17,2.35,0.8,2.35,0.47,0,.89-0.17,1.27-0.17a0.89,0.89,0,0,1,.94.91,1,1,0,0,1-1.19,1c-0.91,0-1.58-.3-2.82-0.3s-2,.3-3,0.3a1,1,0,0,1-1.19-1,0.89,0.89,0,0,1,.94-0.91c0.38,0,.8.17,1.27,0.17,0.69,0,.8-0.61.8-2.35v-6.14h0Z" transform="translate(-149.14 -384.03)"/><path class="cls-1" d="M362.9,393.46c0-1.94-.19-2.33-0.8-2.33s-0.88.17-1.27,0.17a0.9,0.9,0,0,1-.94-0.92,1,1,0,0,1,1-1c0.75,0,1.16.31,1.83,0.31s1-.31,1.57-0.31a1,1,0,0,1,.78,1.19v10.29c0,0.67.22,1.14,0.72,1.14a9.94,9.94,0,0,1,1.1-.17,0.89,0.89,0,0,1,.94.91,1.12,1.12,0,0,1-1.19,1c-0.94,0-1.66-.3-2.85-0.3s-2,.3-2.93.3a1,1,0,0,1-.94-1,0.89,0.89,0,0,1,.94-0.91c0.39,0,.81.17,1.27,0.17,0.64,0,.8-0.61.8-2.33v-6.19h0Zm2.19-7.11a1.59,1.59,0,1,1-3.18,0A1.59,1.59,0,0,1,365.09,386.34Z" transform="translate(-149.14 -384.03)"/><path class="cls-1" d="M371.7,393.48c0-1.91-.16-2.35-0.8-2.35-0.47,0-.88.17-1.27,0.17a0.9,0.9,0,0,1-.94-0.92,1.15,1.15,0,0,1,1-1c0.58,0,.78.31,1.49,0.31s1.05-.31,1.74-0.31,0.61,0.61.61,1.66h0.06a5.67,5.67,0,0,1,4.62-2,5.94,5.94,0,0,1,4,1.5c1.22,1.1,1.27,2.52,1.27,4v5.15c0,1.69.16,2.35,0.8,2.35,0.47,0,.89-0.17,1.28-0.17a0.89,0.89,0,0,1,.94.91,1,1,0,0,1-1.19,1c-0.91,0-1.57-.3-2.82-0.3s-2,.3-3,0.3a1,1,0,0,1-1.19-1,0.89,0.89,0,0,1,.94-0.91c0.39,0,.8.17,1.27,0.17,0.69,0,.8-0.61.8-2.35v-4.1c0-1.77,0-2.32-.44-3.18a3.3,3.3,0,0,0-3-1.52,4.07,4.07,0,0,0-3.38,1.6c-0.33.53-.72,1.14-0.72,3.9v3.26c0,1.69.17,2.35,0.8,2.35,0.47,0,.88-0.17,1.27-0.17a0.89,0.89,0,0,1,.94.91,1,1,0,0,1-1.19,1c-0.91,0-1.58-.3-2.82-0.3s-2,.3-3,0.3a1,1,0,0,1-1.19-1,0.89,0.89,0,0,1,.94-0.91c0.39,0,.8.17,1.27,0.17,0.69,0,.8-0.61.8-2.35v-6.14h0Z" transform="translate(-149.14 -384.03)"/><path class="cls-1" d="M393.11,400a14.36,14.36,0,0,1,4.62.56c1.74,0.58,3.24,1.88,3.24,3.87,0,3.54-4.37,4.43-7.14,4.43s-7-.75-7-4.29a3.43,3.43,0,0,1,2.6-3.27v-0.06c-1.3-.44-2.32-1.16-2.32-2.62a2.92,2.92,0,0,1,2.32-2.8,3.65,3.65,0,0,1-.77-2.41c0-2.88,2.66-4.45,5.28-4.45a5.69,5.69,0,0,1,1.66.19c-0.08-1.8,1.52-2.85,3.18-2.85,1.49,0,3.13.83,3.13,2.52a1.58,1.58,0,0,1-1.49,1.6,1.1,1.1,0,0,1-1.11-1.08,1.19,1.19,0,0,1,.61-0.91,1.35,1.35,0,0,0-1.16-.55,1.56,1.56,0,0,0-1.52,1.88,4.54,4.54,0,0,1,2.16,3.9c0,3-2.57,4.68-5.26,4.68a8,8,0,0,1-3.18-.75,2.23,2.23,0,0,0-.75-0.19,1.15,1.15,0,0,0-1,1.19c0,1.36,1.91,1.41,2.91,1.41h1Zm-2.52,2.51a2.32,2.32,0,0,0-1.46,2,2.45,2.45,0,0,0,1.8,2.1,9.67,9.67,0,0,0,2.93.41c1.57,0,4.81-.39,4.81-2.57s-3-2.52-4.7-2.52A8.83,8.83,0,0,0,390.6,402.52Zm6.67-8.9a3.06,3.06,0,0,0-3.24-2.85,2.94,2.94,0,0,0-3.13,2.87,2.84,2.84,0,0,0,3.1,2.85A3,3,0,0,0,397.27,393.62Z" transform="translate(-149.14 -384.03)"/><path class="cls-1" d="M417,399.34c0.2-.75.31-1.71,1.27-1.71a1.1,1.1,0,0,1,1.08,1.08,6.05,6.05,0,0,1-1.52,3.4,5.88,5.88,0,0,1-4.43,1.8c-4.21,0-6.41-3.43-6.41-7.3,0-4.29,2.18-7.86,6.8-7.86a6,6,0,0,1,3.35,1,4.23,4.23,0,0,1,1.85,3.32c0,1.31-.64,2.52-2.07,2.52a1.56,1.56,0,0,1-1.63-1.52,1.35,1.35,0,0,1,1.44-1.27c-0.05-1.44-1.8-2.16-3-2.16-3.12,0-4.4,3-4.4,5.7s1,5.7,4.26,5.7A3.47,3.47,0,0,0,417,399.34Z" transform="translate(-149.14 -384.03)"/><path class="cls-1" d="M427.37,388.74a6.1,6.1,0,0,1,5.06,2.11,8.7,8.7,0,0,1,1.74,5.42c0,4.2-2.35,7.63-6.83,7.63s-6.56-3.52-6.56-7.56S422.92,388.74,427.37,388.74Zm0,13.28c3.4,0,4.51-2.93,4.51-5.87a7.57,7.57,0,0,0-1-3.93,3.79,3.79,0,0,0-3.35-1.6A3.72,3.72,0,0,0,424,392.5a7.82,7.82,0,0,0-.94,3.76C423.08,399,424.13,402,427.37,402Z" transform="translate(-149.14 -384.03)"/><path class="cls-1" d="M448.29,399.42c0,1.91.22,2.33,0.8,2.33s0.89-.17,1.27-0.17a0.89,0.89,0,0,1,.94.91,1,1,0,0,1-.91,1c-0.5,0-1-.3-1.63-0.3s-0.83.3-1.5,0.3-1-.28-1-1.33v-0.27h-0.06a4.89,4.89,0,0,1-4.26,2c-4.4,0-6.45-3.65-6.45-7.66s2-7.5,6.28-7.5a4.78,4.78,0,0,1,4.29,2.08h0.06v-2.68c0-2.05-.28-2.33-0.8-2.33s-0.88.17-1.27,0.17a0.9,0.9,0,0,1-.94-0.91,1,1,0,0,1,1.05-1c0.77,0,1.19.3,2,.3s1.11-.3,1.66-0.3c0.31,0,.47.22,0.47,1.19v14.19h0Zm-10.46-3c0,2.71,1.22,5.65,4.29,5.65a3.64,3.64,0,0,0,3.4-1.91,9.12,9.12,0,0,0,.64-3.9,6.93,6.93,0,0,0-.88-4,3.87,3.87,0,0,0-3.32-1.58C438.77,390.62,437.83,393.69,437.83,396.37Z" transform="translate(-149.14 -384.03)"/><path class="cls-1" d="M454,396.62c-0.11,2.82,1.41,5.4,4.46,5.4a3.68,3.68,0,0,0,3.81-2.74c0.17-.58.31-1.22,1.05-1.22a1,1,0,0,1,1.11,1.05,4.94,4.94,0,0,1-1.63,3.18,6.69,6.69,0,0,1-4.51,1.61c-4.35,0-6.58-3.24-6.58-7.33a8.89,8.89,0,0,1,1.63-5.4,6.42,6.42,0,0,1,5.09-2.44,6.08,6.08,0,0,1,6.28,6.39c0,1.38,0,1.49-1.33,1.49H454Zm8.41-2c-0.14-2.27-1.44-4-3.9-4a4.17,4.17,0,0,0-4.26,4h8.16Z" transform="translate(-149.14 -384.03)"/></svg>